<?xml version="1.0" standalone="no"?>
<!DOCTYPE svg PUBLIC "-//W3C//DTD SVG 20010904//EN"
 "http://www.w3.org/TR/2001/REC-SVG-20010904/DTD/svg10.dtd">
<svg version="1.0" xmlns="http://www.w3.org/2000/svg"
 width="512.000000pt" height="512.000000pt" viewBox="0 0 512.000000 512.000000"
 preserveAspectRatio="xMidYMid meet">
<metadata>
Created by potrace 1.14, written by Peter Selinger 2001-2017
</metadata>
<g transform="translate(0.000000,512.000000) scale(0.100000,-0.100000)"
fill="#000000" stroke="none">
<path d="M2130 4926 c-3 -2 -34 -6 -70 -10 -36 -3 -76 -8 -90 -11 -143 -28
-202 -43 -310 -77 -282 -90 -533 -225 -718 -386 -95 -83 -96 -84 -164 -164
-186 -219 -292 -478 -283 -691 4 -85 20 -135 87 -273 43 -89 49 -108 43 -142
-8 -51 -58 -134 -146 -246 -104 -132 -114 -155 -114 -256 1 -97 11 -122 77
-189 54 -55 133 -93 196 -93 53 -1 147 22 219 53 26 11 66 28 88 37 22 9 101
48 175 86 610 311 590 302 680 311 30 2 75 7 100 9 134 14 189 16 194 8 3 -5
8 -31 11 -57 9 -73 69 -243 110 -315 46 -78 183 -217 245 -246 103 -50 147
-62 241 -68 122 -8 137 22 65 132 -96 148 -109 193 -122 420 -3 56 -4 102 -1
102 15 0 151 -56 197 -82 137 -75 267 -197 305 -283 43 -96 59 -204 59 -390 1
-163 -9 -338 -21 -380 -11 -40 -106 -149 -178 -204 -174 -135 -267 -125 -388
38 -97 132 -183 204 -297 249 -116 46 -228 66 -361 65 -110 0 -162 -22 -167
-69 -4 -40 23 -66 129 -124 91 -50 83 -40 178 -241 57 -120 71 -136 198 -231
l93 -69 -34 -48 c-43 -60 -83 -139 -107 -208 -14 -43 -17 -82 -16 -231 l1
-179 -41 -64 c-65 -100 -79 -134 -67 -167 9 -23 15 -27 47 -25 78 5 225 101
363 238 l102 101 106 216 105 215 48 20 c26 11 73 28 103 38 682 218 1147 722
1296 1405 21 96 24 111 30 155 2 22 7 49 9 61 13 59 20 209 19 384 -1 175 -9
259 -38 405 -5 27 -18 104 -23 135 -2 14 -4 60 -4 103 -1 66 3 86 27 134 56
115 144 187 292 239 138 49 155 70 127 154 -46 138 -243 262 -501 317 -83 17
-310 23 -394 10 -90 -13 -115 -18 -129 -23 -7 -2 -37 9 -65 25 -107 60 -203
109 -276 141 -41 18 -88 38 -105 46 -118 53 -430 140 -580 163 -38 6 -86 13
-105 17 -42 7 -444 17 -450 10z"/>
</g>
</svg>
