<svg width="0%" height="0%" xmlns="http://www.w3.org/2000/svg"
    viewBox="0 0 407 50">
    <path
        d="M220.3 0c11 0 17.7 6.6 17.7 25 0 18.3-6.6 25-17.7 25-11 0-17.7-6.5-17.7-25 0-18.3 6.6-25 17.7-25zM14 .9c9.1 0 14.6 5.6 14.6 16.6 0 10-5.5 16.2-14.5 16.2h-4v15.4H0V.9zm38 0l10 48.2H51.6L50 40.6H39.1l-1.5 8.5H27.4L37.6.9h14.3zm23.6 0v38.6h15.2v9.6H65.4V.9h10zm45.6 0v9.6h-16.3v9.3H117V29h-12.1v10.4h16.6V49H94.7V.9h26.4zm19.6 0c9.5 0 14.5 6.5 14.5 15.9 0 5.9-2.3 10.5-6.6 12.7l7.6 19.6H145l-6-17.4-1.3.1H136v17.3h-10V.9zm31.7 0l7.2 20.9h.2L186.5.9h12v48.2h-10v-32h-.2s-1.3 5.1-2.9 10.4l-3.1 10.8h-6.7l-3-10.7c-1.7-5.4-3-10.5-3-10.6h-.2v32.1H160V.9h12.5zm48 8.7c-5.1 0-7.5 3.6-7.5 15.3 0 11.9 2.4 15.5 7.4 15.5s7.4-3.5 7.4-15.3c0-12-2.5-15.5-7.4-15.5zm-175.8.8h-.2L43 19.3l-2.2 12h7.6l-2.1-12-1.6-8.9zm-31.2 0H10l.1 14.2h3.3c3.6 0 5.1-2.2 5.2-7 0-4.5-1.5-7.1-5.2-7.1zm126.6 0h-3.9v13h4.2c2.8 0 4.8-2 4.8-6.5 0-4-1.7-6.5-5-6.5z"
        fill='#f291b2'></path>
    <path
        d="M288.8 0c11 0 17.8 6.6 17.8 25 0 18.3-6.6 25-17.8 25-11 0-17.6-6.5-17.6-25 0-18.3 6.6-25 17.6-25zm95 .9l4.4 13.2L390 20h.3s.8-2.8 1.9-5.7L396.8.9H407l-12.2 31V49h-10V31.9L372.4.9h11.4zM273.6.9v3.3a17 17 0 00-3.8 6.3h-6V49h-10V10.5H244V.9h29.6zm52 0c12.4 0 17.9 9 17.9 24.3 0 15-5.2 23.9-17.5 23.9h-15.3V.9zm42 0l10.2 48.2h-10.5l-1.5-8.5h-11l-1.4 8.5h-10.1l10-48.2h14.4zM289 9.6c-5 0-7.4 3.6-7.4 15.3 0 11.9 2.4 15.5 7.4 15.5 4.9 0 7.3-3.5 7.3-15.3 0-12-2.4-15.5-7.3-15.5zm35.9.9h-4v29h3.8c5.7 0 8.6-3.7 8.6-14 0-11.6-3-15-8.4-15zm35.7-.1h-.3l-1.5 8.9-2.2 12h7.6l-2.1-12-1.5-8.9z"
    ></path>
</svg>