<?xml version="1.0" encoding="utf-8"?>
<!-- Generator: Adobe Illustrator 23.0.1, SVG Export Plug-In . SVG Version: 6.00 Build 0)  -->
<svg version="1.1"
	 id="svg2" inkscape:version="0.92.1 r15371" sodipodi:docname="TGR.svg" xmlns:cc="http://creativecommons.org/ns#" xmlns:dc="http://purl.org/dc/elements/1.1/" xmlns:inkscape="http://www.inkscape.org/namespaces/inkscape" xmlns:osb="http://www.openswatchbook.org/uri/2009/osb" xmlns:rdf="http://www.w3.org/1999/02/22-rdf-syntax-ns#" xmlns:sodipodi="http://sodipodi.sourceforge.net/DTD/sodipodi-0.dtd" xmlns:svg="http://www.w3.org/2000/svg"
	 xmlns="http://www.w3.org/2000/svg" xmlns:xlink="http://www.w3.org/1999/xlink" x="0px" y="0px" width="284.548px"
	 height="144.607px" viewBox="0 0 284.548 144.607" enable-background="new 0 0 284.548 144.607" xml:space="preserve">
<g>
	
		<linearGradient id="rect4625_1_" gradientUnits="userSpaceOnUse" x1="-1398.693" y1="-380.8988" x2="-1295.5416" y2="-380.3684" gradientTransform="matrix(1.3277 0 0 1.3333 1869.5902 579.8205)">
		<stop  offset="0" style="stop-color:#FFFFFF"/>
		<stop  offset="1" style="stop-color:#FFFFFF;stop-opacity:0"/>
	</linearGradient>
	<rect id="rect4625" x="5.495" fill="url(#rect4625_1_)" width="143.998" height="144.607"/>
	<rect id="rect4642_2_" fill="#F8813C" width="5.495" height="144.581"/>
	<g id="text4654_2_" transform="scale(0.97956905,-1.0208571)">
		
			<linearGradient id="path6283_1_" gradientUnits="userSpaceOnUse" x1="-1435.4353" y1="-2416.8882" x2="-1435.3712" y2="-2395.8733" gradientTransform="matrix(1.2794 0 0 -1.4481 1896.5028 -3540.9102)">
			<stop  offset="0" style="stop-color:#014797"/>
			<stop  offset="1" style="stop-color:#002C63"/>
		</linearGradient>
		<path id="path6283_2_" inkscape:connector-curvature="0" fill="url(#path6283_1_)" d="M44.491-46.099v5.495h31v-5.495H62.895
			v-50.997h-5.793v50.997H44.491z"/>
		
			<linearGradient id="path6283-9_1_" gradientUnits="userSpaceOnUse" x1="-1434.8673" y1="-2120.5903" x2="-1435.192" y2="-2097.4121" gradientTransform="matrix(1.2794 0 0 1.3895 1896.5028 2849.5969)">
			<stop  offset="0" style="stop-color:#014797"/>
			<stop  offset="1" style="stop-color:#000000;stop-opacity:0"/>
		</linearGradient>
		<path id="path6283-9_2_" inkscape:connector-curvature="0" fill="url(#path6283-9_1_)" d="M44.491-46.099v5.495h31v-5.495H62.895
			v-50.997h-5.793v50.997H44.491z"/>
	</g>
	<g>
		
			<linearGradient id="path6286_1_" gradientUnits="userSpaceOnUse" x1="-1348.4309" y1="285.2076" x2="-1348.205" y2="262.2689" gradientTransform="matrix(1.3333 0 0 -1.3092 1901.8073 414.8092)">
			<stop  offset="0" style="stop-color:#014797"/>
			<stop  offset="1" style="stop-color:#002C63"/>
		</linearGradient>
		<path id="path6286_2_" inkscape:connector-curvature="0" fill="url(#path6286_1_)" d="M130.377,51.892l-4.303,4.005
			c-3.097-2.994-6.493-5.197-10.199-6.804c-3.707-1.607-7.193-2.294-10.692-2.294c-4.303,0-8.502,0.998-12.403,3.097
			c-3.901,2.1-6.998,4.899-9.098,8.502c-2.203,3.603-3.201,7.4-3.201,11.405c0,4.095,1.102,7.996,3.396,11.703
			c2.203,3.694,5.301,6.597,9.292,8.696c3.901,2.1,8.294,3.097,12.999,3.097c5.702,0,10.498-1.594,14.502-4.704
			c3.901-3.201,6.299-7.193,6.998-12.299h-17.69v-5.301h23.898c-0.104,8.398-2.605,15.098-7.595,19.997
			c-5.003,4.899-11.703,7.4-20.192,7.4c-10.199,0-18.403-3.396-24.3-10.303c-4.899-5.093-7.193-11.197-7.193-18.092
			c0-5.197,1.296-9.901,4.005-14.398c2.605-4.393,6.299-7.893,10.796-10.394c4.601-2.501,9.798-3.797,15.604-3.797
			c4.704,0,9.098,0.804,13.297,2.501C122.381,45.593,126.476,48.198,130.377,51.892L130.377,51.892z"/>
		
			<linearGradient id="path6286-5_1_" gradientUnits="userSpaceOnUse" x1="-1350.8231" y1="245.628" x2="-1350.7692" y2="272.0439" gradientTransform="matrix(1.3456 0 0 -1.3212 1921.8467 422.7779)">
			<stop  offset="0" style="stop-color:#014797"/>
			<stop  offset="1" style="stop-color:#000000;stop-opacity:0"/>
		</linearGradient>
		<path id="path6286-5_2_" inkscape:connector-curvature="0" fill="url(#path6286-5_1_)" d="M130.377,51.892l-4.303,4.005
			c-3.097-2.994-6.493-5.197-10.199-6.804c-3.707-1.607-7.193-2.294-10.692-2.294c-4.303,0-8.502,0.998-12.403,3.097
			c-3.901,2.1-6.998,4.899-9.098,8.502c-2.203,3.603-3.201,7.4-3.201,11.405c0,4.095,1.102,7.996,3.396,11.703
			c2.203,3.694,5.301,6.597,9.292,8.696c3.901,2.1,8.294,3.097,12.999,3.097c5.702,0,10.498-1.594,14.502-4.704
			c3.901-3.201,6.299-7.193,6.998-12.299h-17.69v-5.301h23.898c-0.104,8.398-2.605,15.098-7.595,19.997
			c-5.003,4.899-11.703,7.4-20.192,7.4c-10.199,0-18.403-3.396-24.3-10.303c-4.899-5.093-7.193-11.197-7.193-18.092
			c0-5.197,1.296-9.901,4.005-14.398c2.605-4.393,6.299-7.893,10.796-10.394c4.601-2.501,9.798-3.797,15.604-3.797
			c4.704,0,9.098,0.804,13.297,2.501C122.381,45.593,126.476,48.198,130.377,51.892L130.377,51.892z"/>
	</g>
	
		<radialGradient id="rect4625-6_1_" cx="-1266.9655" cy="264.4659" r="54.1508" gradientTransform="matrix(1.3333 0 0 -1.3389 1901.8074 426.384)" gradientUnits="userSpaceOnUse">
		<stop  offset="0" style="stop-color:#014797"/>
		<stop  offset="1" style="stop-color:#002C63"/>
	</radialGradient>
	<rect id="rect4625-6_2_" x="140.576" fill="url(#rect4625-6_1_)" width="143.972" height="144.581"/>
	<path id="path6289_2_" inkscape:connector-curvature="0" fill="#FFFFFF" d="M147.782,41.796h11.301
		c6.299,0,10.601,0.298,12.895,0.804c3.396,0.804,6.104,2.398,8.204,5.003c2.1,2.501,3.201,5.702,3.201,9.396
		c0,3.097-0.7,5.793-2.203,8.204c-1.4,2.398-3.499,4.095-6.195,5.301c-2.696,1.205-6.493,1.801-11.197,1.801l20.503,26.49h-6.998
		l-20.399-26.49h-3.318v26.49h-5.702V41.796H147.782z M153.472,47.394v19.401l9.798,0.104c3.797,0,6.597-0.402,8.398-1.102
		c1.801-0.7,3.305-1.905,4.303-3.396c0.998-1.594,1.503-3.396,1.503-5.301s-0.505-3.603-1.503-5.197
		c-0.998-1.594-2.398-2.696-4.095-3.396c-1.698-0.7-4.497-0.998-8.398-0.998L153.472,47.394z"/>
</g>
</svg>
