<?xml version="1.0" encoding="UTF-8" standalone="no"?>
<!-- Created with Inkscape (http://www.inkscape.org/) -->

<svg
   width="1024"
   height="1024"
   viewBox="0 0 270.93333 270.93334"
   version="1.1"
   id="svg5"
   sodipodi:docname="mareSI.svg"
   inkscape:export-filename="/home/default/Projects/GitHub/mareSimple/assets/icon.png"
   inkscape:export-xdpi="96"
   inkscape:export-ydpi="96"
   inkscape:version="1.1 (1:1.1+202105261517+ce6663b3b7)"
   xmlns:inkscape="http://www.inkscape.org/namespaces/inkscape"
   xmlns:sodipodi="http://sodipodi.sourceforge.net/DTD/sodipodi-0.dtd"
   xmlns="http://www.w3.org/2000/svg"
   xmlns:svg="http://www.w3.org/2000/svg">
  <sodipodi:namedview
     id="namedview7"
     pagecolor="#ffffff"
     bordercolor="#666666"
     borderopacity="1.0"
     inkscape:pageshadow="2"
     inkscape:pageopacity="0.0"
     inkscape:pagecheckerboard="0"
     inkscape:document-units="mm"
     showgrid="false"
     units="px"
     inkscape:zoom="0.5"
     inkscape:cx="-427"
     inkscape:cy="479"
     inkscape:window-width="2560"
     inkscape:window-height="1001"
     inkscape:window-x="0"
     inkscape:window-y="0"
     inkscape:window-maximized="1"
     inkscape:current-layer="layer2" />
  <defs
     id="defs2" />
  <g
     inkscape:groupmode="layer"
     id="layer2"
     inkscape:label="Layer 2" />
  <g
     inkscape:label="Layer 1"
     inkscape:groupmode="layer"
     id="layer1">
    <path
       style="fill:#ffffff;fill-opacity:1;stroke-width:0.969466"
       d="M 125.31327,250.97047 C 93.615379,248.37763 62.974153,231.57606 43.651342,206.19253 18.412725,173.03771 12.818665,130.09513 28.613728,90.756992 38.813595,65.353929 63.024315,40.472051 88.119225,29.601831 133.01314,10.155393 183.26521,19.376718 217.36882,53.319286 c 17.84349,17.759255 29.38611,40.764587 33.06013,65.891374 1.39963,9.57209 0.67662,32.86704 -1.26463,40.74528 l -1.31385,5.33207 -3.96532,-8.39352 c -13.22511,-27.99412 -35.88408,-48.71172 -64.03461,-58.548321 -3.37902,-1.180729 -6.0804,-2.525317 -6.00305,-2.988023 0.0773,-0.462669 2.60376,-2.692987 5.61432,-4.956208 5.93145,-4.459133 16.50814,-9.278669 24.31907,-11.081676 3.4711,-0.801235 4.90656,-1.603495 4.90656,-2.742343 0,-2.579215 -6.21271,-4.03959 -19.44897,-4.571768 -10.48047,-0.421338 -13.24465,-0.19713 -19.83037,1.609834 -9.39709,2.578044 -18.6762,7.361268 -26.48126,13.650706 -5.52063,4.44858 -6.50566,4.859988 -14.91308,6.229016 -4.95111,0.806218 -10.45661,1.891203 -12.23448,2.411106 -9.06413,2.650629 -17.139796,10.212247 -22.570948,21.134207 -2.341781,4.70925 -5.665181,8.91123 -12.11987,15.32411 -8.621948,8.56607 -12.240347,13.94105 -14.888375,22.11605 -1.013754,3.12961 -0.98129,3.96378 0.200062,5.14524 1.233821,1.23382 2.125999,0.93487 7.13673,-2.39121 8.111828,-5.38458 18.153698,-10.27637 27.080061,-13.19184 4.22221,-1.379 7.94672,-2.50729 8.27668,-2.50729 0.33013,0 1.7424,2.07224 3.13876,4.60496 6.54208,11.86613 17.16955,21.7156 30.21912,28.00683 11.04885,5.32669 12.28571,4.16894 5.34413,-5.00216 -6.90673,-9.12506 -10.61087,-17.07732 -13.04184,-27.99898 l -0.62612,-2.81303 9.22301,0.64833 c 32.59651,2.29129 63.52123,20.1874 81.8142,47.34573 8.70502,12.92371 8.56025,12.02519 3.10982,19.30313 -6.33212,8.45534 -18.40103,19.83942 -27.64811,26.07928 -21.88873,14.77035 -48.03667,21.47512 -75.11343,19.2603 z"
       id="path954" />
  </g>
</svg>
