<svg xmlns="http://www.w3.org/2000/svg" xmlns:xlink="http://www.w3.org/1999/xlink" viewBox="0 0 213.69 240.48"><defs><style>.cls-1{fill:url(#Sfumatura_senza_nome_3);}.cls-2{fill:url(#Sfumatura_senza_nome_3-2);}.cls-3{fill:url(#Sfumatura_senza_nome_3-3);}.cls-4{fill:url(#Sfumatura_senza_nome_3-4);}.cls-5{fill:url(#Sfumatura_senza_nome_3-5);}.cls-6{fill:url(#Sfumatura_senza_nome_3-7);}.cls-7{fill:url(#Sfumatura_senza_nome_3-8);}.cls-8{fill:url(#Sfumatura_senza_nome_3-9);}.cls-9{fill:url(#Sfumatura_senza_nome_3-10);}.cls-10{fill:url(#Sfumatura_senza_nome_4);}</style><linearGradient id="Sfumatura_senza_nome_3" x1="113.43" y1="14.92" x2="117.7" y2="14.92" gradientUnits="userSpaceOnUse"><stop offset="0" stop-color="#80ccea"/><stop offset="1" stop-color="#3d7bbe"/></linearGradient><linearGradient id="Sfumatura_senza_nome_3-2" x1="66.03" y1="221.76" x2="66.77" y2="221.76" xlink:href="#Sfumatura_senza_nome_3"/><linearGradient id="Sfumatura_senza_nome_3-3" x1="154.38" y1="21.06" x2="188.4" y2="21.06" xlink:href="#Sfumatura_senza_nome_3"/><linearGradient id="Sfumatura_senza_nome_3-4" x1="95.56" y1="96.92" x2="144.54" y2="96.92" xlink:href="#Sfumatura_senza_nome_3"/><linearGradient id="Sfumatura_senza_nome_3-5" x1="164.2" y1="85.45" x2="193.53" y2="85.45" xlink:href="#Sfumatura_senza_nome_3"/><linearGradient id="Sfumatura_senza_nome_3-7" x1="85.46" y1="53.45" x2="105.66" y2="53.45" xlink:href="#Sfumatura_senza_nome_3"/><linearGradient id="Sfumatura_senza_nome_3-8" x1="144.54" y1="88.54" x2="177.6" y2="88.54" xlink:href="#Sfumatura_senza_nome_3"/><linearGradient id="Sfumatura_senza_nome_3-9" x1="144.54" y1="86.26" x2="193.53" y2="86.26" xlink:href="#Sfumatura_senza_nome_3"/><linearGradient id="Sfumatura_senza_nome_3-10" x1="0" y1="127.62" x2="213.69" y2="127.62" xlink:href="#Sfumatura_senza_nome_3"/><linearGradient id="Sfumatura_senza_nome_4" x1="10.63" y1="135.18" x2="196.92" y2="135.18" gradientUnits="userSpaceOnUse"><stop offset="0" stop-color="#f1f8f8"/><stop offset="1" stop-color="#d9edeb"/></linearGradient></defs><g id="Livello_2" data-name="Livello 2"><g id="Livello_1-2" data-name="Livello 1"><path class="cls-1" d="M117.7,14.84c-1.43,0-2.86.12-4.27.25.06-.11.14-.22.21-.33h.19C115.12,14.76,116.41,14.77,117.7,14.84Z"/><path class="cls-2" d="M66.77,223c-.29-.83-.53-1.65-.74-2.51C66.24,221.35,66.49,222.19,66.77,223Z"/><path class="cls-3" d="M188.4,36.18a40.13,40.13,0,0,1-.43,5.94,95.14,95.14,0,0,0-33.59-21.41,40.09,40.09,0,0,0,6.74-16.62v0c.06-.36.11-.73.16-1.09A4.08,4.08,0,0,1,166.37.17c.51.27,1,.53,1.52.82A40.4,40.4,0,0,1,188.4,36.18Z"/><path class="cls-4" d="M144.54,97c-.66.61-1.36,1.2-2.08,1.76a40.43,40.43,0,0,1-45.13,3.62c-.37-.2-.73-.42-1.1-.64a2.41,2.41,0,0,1,1.18-4,4.29,4.29,0,0,0,.53-.06h0a40.21,40.21,0,0,0,22.51-11.2.85.85,0,0,0,.19-.19h0A91.46,91.46,0,0,1,144.54,97Z"/><path class="cls-5" d="M177.05,78.07a.23.23,0,0,0-.11,0c-2.38-.92-4.82-1.73-7.29-2.44h0a1,1,0,0,1-.18.18l0,0-.42.41a31.71,31.71,0,0,1-2.85,2.45c-.63.53-1.28,1-2,1.48A101.68,101.68,0,0,1,177.6,95.3l1.67-.53a40.19,40.19,0,0,0,12.18-6.7l.88-.71c.41-.34.81-.69,1.2-1A89.37,89.37,0,0,0,177.05,78.07Z"/><path class="cls-2" d="M66.77,223c-.29-.83-.53-1.65-.74-2.51C66.24,221.35,66.49,222.19,66.77,223Z"/><path class="cls-6" d="M105.66,53.75a100.26,100.26,0,0,0-20.2,0,85.31,85.31,0,0,1,20.2,0Z"/><path class="cls-7" d="M177.6,95.3a40.45,40.45,0,0,1-31.28-3.61c-.38-.2-.73-.42-1.11-.64a2.4,2.4,0,0,1,1.18-4,4.25,4.25,0,0,0,.53-.07h0a39.9,39.9,0,0,0,17.26-6.83A101.68,101.68,0,0,1,177.6,95.3Z"/><path class="cls-8" d="M193.53,86.32c-.39.35-.79.7-1.2,1l-.88.71a40.19,40.19,0,0,1-12.18,6.7l-1.67.53a40.45,40.45,0,0,1-31.28-3.61c-.38-.2-.73-.42-1.11-.64a2.4,2.4,0,0,1,1.18-4,4.25,4.25,0,0,0,.53-.07h0a39.9,39.9,0,0,0,17.26-6.83c.67-.47,1.32-1,2-1.48A31.71,31.71,0,0,0,169,76.22l.42-.41,0,0a1,1,0,0,0,.18-.18h0c2.47.71,4.91,1.52,7.29,2.44a.23.23,0,0,1,.11,0A89.37,89.37,0,0,1,193.53,86.32Z"/><path class="cls-9" d="M213.69,99.23a75.21,75.21,0,0,1-12.22,41.21,54.51,54.51,0,0,0-1,10.44,8.32,8.32,0,0,1-3.65,6.92c.06-1.48.1-3,.1-4.43a105.56,105.56,0,0,0-17.65-58.6,40.19,40.19,0,0,0,12.18-6.7l.88-.71c.41-.34.81-.69,1.2-1a89.37,89.37,0,0,0-16.48-8.25.23.23,0,0,0-.11,0c-2.38-.92-4.82-1.73-7.29-2.44h0a1,1,0,0,1-.18.18l0,0-.42.41a31.71,31.71,0,0,1-2.85,2.45c-.63.53-1.28,1-2,1.48a100.72,100.72,0,0,0-36.14-21.56.18.18,0,0,0-.11,0c-1.71-.57-3.43-1.11-5.17-1.6-.78-.21-1.55-.42-2.35-.62a100.88,100.88,0,0,0-14.54-2.56.9.9,0,0,0-.23,0,85.31,85.31,0,0,0-20.2,0,.9.9,0,0,0-.23,0,81.35,81.35,0,0,0-8.65,1.51,85,85,0,0,0-12.2,161.83.06.06,0,0,1,.05,0c.2.12.42.23.63.34l.31.15a1.23,1.23,0,0,0,.07.32.23.23,0,0,1,0-.11c0-.11,0-.24-.06-.35a37.78,37.78,0,0,1-.62-6.85c0-.45,0-.91,0-1.36a38.46,38.46,0,0,1,4.4-16.63v.07A19.39,19.39,0,0,0,74.42,206a28.47,28.47,0,0,0,2.84,2.52,7.83,7.83,0,0,1,1.51,4.65,7.93,7.93,0,0,1-2,5.33,4.9,4.9,0,0,1,1.91-.38,5.23,5.23,0,0,1,5,3.56,4,4,0,0,0,.11.47c0,.12.06.26.09.38A19.47,19.47,0,0,0,98.7,236.62a19.54,19.54,0,0,1-24.77-1.19c-.09-.09-.2-.19-.29-.3l-.12,0A113.69,113.69,0,0,1,0,128.6q0-4,.28-7.93A113.63,113.63,0,0,1,70.92,23.15l0,0a111.43,111.43,0,0,1,15.41-5c1.33-.34,2.67-.65,4-.91a0,0,0,0,1,0,0,114.08,114.08,0,0,1,23.24-2.42c-.07.11-.15.22-.21.33,1.41-.13,2.84-.22,4.27-.25,1.15-.07,2.33-.08,3.49-.08A94.89,94.89,0,0,1,188,42.12c.25.23.49.48.74.73.73.74,1.46,1.49,2.15,2.25a95.35,95.35,0,0,1,17.35,26.21c.47,1,.9,2.08,1.32,3.14A75.27,75.27,0,0,1,213.69,99.23Z"/><path class="cls-10" d="M196.92,153.37c0,1.47,0,2.95-.1,4.43a2.79,2.79,0,0,1-.32.23,8.19,8.19,0,0,1-3.66,1.21,6.64,6.64,0,0,1-.77,0,8.35,8.35,0,0,1-8.25-6.93,11.15,11.15,0,0,1-.67-1.63c-.14-.65-.31-1.32-.48-2h0c-.17-.64-.33-1.27-.51-1.91-.52-1.85-1.09-3.67-1.74-5.45A87.3,87.3,0,0,0,144.54,97a91.46,91.46,0,0,0-23.87-10.72h0c-1.8-.52-3.63-1-5.48-1.39l-.21,0a67.43,67.43,0,0,0-7.86-1.55,72.3,72.3,0,0,0-9.82-.67H95.45a71,71,0,0,0-14.76,2A68.11,68.11,0,0,0,67,89.33c-1.41.65-2.8,1.37-4.15,2.11a71.3,71.3,0,0,0,1.51,125.67A85,85,0,0,1,76.58,55.28a81.35,81.35,0,0,1,8.65-1.51.9.9,0,0,1,.23,0,100.26,100.26,0,0,1,20.2,0,.9.9,0,0,1,.23,0,100.88,100.88,0,0,1,14.54,2.56c.8.2,1.57.41,2.35.62,1.74.49,3.46,1,5.17,1.6a.18.18,0,0,1,.11,0A100.72,100.72,0,0,1,164.2,80.15,39.9,39.9,0,0,1,146.94,87h0a4.25,4.25,0,0,1-.53.07,2.4,2.4,0,0,0-1.18,4c.38.22.73.44,1.11.64A40.45,40.45,0,0,0,177.6,95.3l1.67-.53A105.56,105.56,0,0,1,196.92,153.37Z"/></g></g></svg>